<svg width="16" height="20" viewBox="0 0 16 20" fill="none" xmlns="http://www.w3.org/2000/svg">
<path d="M7.82227 0.603516C8.67188 0.603516 9.23828 1.18945 9.23828 2.06836V12.9082L9.15039 15.0273L11.1133 12.7617L13.3105 10.5742C13.5742 10.3105 13.9062 10.1348 14.3262 10.1348C15.0879 10.1348 15.6641 10.7012 15.6641 11.502C15.6641 11.873 15.5176 12.2148 15.2246 12.5176L8.86719 18.875C8.60352 19.1484 8.21289 19.3047 7.82227 19.3047C7.44141 19.3047 7.04102 19.1484 6.77734 18.875L0.429688 12.5176C0.136719 12.2148 -0.00976562 11.873 -0.00976562 11.502C-0.00976562 10.7012 0.566406 10.1348 1.32812 10.1348C1.75781 10.1348 2.08984 10.3105 2.34375 10.5742L4.54102 12.7617L6.50391 15.0273L6.40625 12.9082V2.06836C6.40625 1.18945 6.98242 0.603516 7.82227 0.603516Z" fill="#5C5C5C"/>
</svg>
